<?xml version="1.0" encoding="utf-8"?>
<!-- Generator: Adobe Illustrator 19.2.0, SVG Export Plug-In . SVG Version: 6.00 Build 0)  -->
<svg version="1.1" id="US_UK_Download_on_the" xmlns="http://www.w3.org/2000/svg" xmlns:xlink="http://www.w3.org/1999/xlink"
	 x="0px" y="0px" viewBox="0 0 133.1 40" style="enable-background:new 0 0 133.1 40;" xml:space="preserve">
<style type="text/css">
	.st0{fill:#A6A6A6;}
	.st1{fill:#FFFFFF;}
	.st2{fill:#FFFFFF;fill-opacity:0;}
	.st3{fill:#FFFFFF;stroke:#FFFFFF;stroke-width:0.2;stroke-miterlimit:10;}
	.st4{fill:url(#SVGID_1_);}
	.st5{fill:url(#SVGID_2_);}
	.st6{fill:url(#SVGID_3_);}
	.st7{fill:url(#SVGID_4_);}
	.st8{opacity:0.2;enable-background:new    ;}
	.st9{opacity:0.12;enable-background:new    ;}
	.st10{opacity:0.25;fill:#FFFFFF;enable-background:new    ;}
</style>
<g>
	<rect x="-9.7" y="-9.1" class="st2" width="152.7" height="59.1"/>
	<g>
		<path d="M128.3,40.1H5.1c-2.7,0-4.9-2.1-4.9-4.9V5.7c0-2.8,2.2-4.9,4.9-4.9h123.1c2.8,0,4.9,2.2,4.9,4.9v29.6
			C133.2,38,131,40.1,128.3,40.1z"/>
	</g>
	<g>
		<g>
			<path class="st0" d="M128.3,1.5c2.2,0,4.1,1.9,4.1,4.1v29.6c0,2.2-1.9,4.1-4.1,4.1H5.1c-2.2,0-4.1-1.9-4.1-4.1V5.7
				c0-2.2,1.9-4.1,4.1-4.1H128.3 M128.3,0.8H5.1C2.4,0.8,0.2,3,0.2,5.7v29.6c0,2.8,2.2,4.9,4.9,4.9h123.1c2.8,0,4.9-2.2,4.9-4.9V5.7
				C133.2,3,131,0.8,128.3,0.8L128.3,0.8z"/>
		</g>
	</g>
	<g>
		<path class="st3" d="M46.9,10.8c0,0.8-0.2,1.5-0.7,2c-0.6,0.6-1.3,0.9-2.2,0.9c-0.9,0-1.5-0.3-2.1-0.9c-0.6-0.6-0.9-1.3-0.9-2.2
			s0.3-1.6,0.9-2.2s1.3-0.9,2.2-0.9c0.4,0,0.8,0.1,1.2,0.3c0.4,0.2,0.7,0.4,0.9,0.7L45.7,9c-0.4-0.5-0.9-0.7-1.6-0.7
			c-0.6,0-1.2,0.2-1.6,0.7c-0.5,0.4-0.7,1-0.7,1.7c0,0.7,0.2,1.3,0.7,1.7c0.5,0.4,1,0.7,1.6,0.7c0.7,0,1.2-0.2,1.7-0.7
			c0.3-0.3,0.5-0.7,0.5-1.2H44v-0.7h2.9C46.9,10.5,46.9,10.7,46.9,10.8z"/>
		<path class="st3" d="M51.4,8.3h-2.7v1.9h2.5v0.7h-2.5v1.8h2.7v0.8H48V7.6h3.4V8.3z"/>
		<path class="st3" d="M54.7,13.5h-0.8V8.3h-1.7V7.6h4.1v0.7h-1.7V13.5z"/>
		<path class="st3" d="M59.2,13.5V7.6H60v5.9H59.2z"/>
		<path class="st3" d="M63.3,13.5h-0.8V8.3h-1.7V7.6h4v0.7h-1.7L63.3,13.5L63.3,13.5z"/>
		<path class="st3" d="M72.7,12.8c-0.6,0.6-1.3,0.9-2.2,0.9c-0.9,0-1.6-0.3-2.2-0.9c-0.6-0.6-0.9-1.3-0.9-2.2s0.3-1.6,0.9-2.2
			c0.6-0.6,1.3-0.9,2.2-0.9c0.9,0,1.6,0.3,2.2,0.9c0.6,0.6,0.9,1.3,0.9,2.2S73.3,12.2,72.7,12.8z M68.9,12.3c0.4,0.4,1,0.7,1.6,0.7
			c0.6,0,1.2-0.2,1.6-0.7c0.4-0.4,0.7-1,0.7-1.7c0-0.7-0.2-1.3-0.7-1.7c-0.4-0.4-1-0.7-1.6-0.7c-0.6,0-1.2,0.2-1.6,0.7
			c-0.4,0.4-0.7,1-0.7,1.7C68.3,11.3,68.5,11.9,68.9,12.3z"/>
		<path class="st3" d="M74.7,13.5V7.6h0.9l2.8,4.6l0,0V11V7.6h0.8v5.9h-0.8l-3.1-4.8l0,0v1.2v3.7H74.7z"/>
	</g>
	<path class="st1" d="M67.3,22.2c-2.4,0-4.3,1.8-4.3,4.3c0,2.4,1.9,4.3,4.3,4.3s4.3-1.8,4.3-4.3C71.5,23.9,69.6,22.2,67.3,22.2z
		 M67.3,28.9c-1.3,0-2.4-1.1-2.4-2.5s1.1-2.5,2.4-2.5s2.4,1,2.4,2.5C69.6,27.8,68.6,28.9,67.3,28.9z M58.1,22.2
		c-2.4,0-4.3,1.8-4.3,4.3c0,2.4,1.9,4.3,4.3,4.3s4.3-1.8,4.3-4.3C62.4,23.9,60.5,22.2,58.1,22.2z M58.1,28.9c-1.3,0-2.4-1.1-2.4-2.5
		s1.1-2.5,2.4-2.5s2.4,1,2.4,2.5C60.5,27.8,59.4,28.9,58.1,28.9z M47.2,23.5v1.8h4.3c-0.1,1-0.5,1.8-1,2.2c-0.6,0.6-1.6,1.3-3.3,1.3
		c-2.7,0-4.6-2.1-4.6-4.7s2.1-4.7,4.6-4.7c1.4,0,2.5,0.6,3.3,1.3l1.3-1.3c-1.1-1-2.5-1.8-4.4-1.8c-3.5,0-6.6,3-6.6,6.5
		s3.1,6.5,6.6,6.5c2,0,3.4-0.6,4.6-1.9c1.2-1.2,1.6-2.8,1.6-4.1c0-0.4,0-0.8-0.1-1.1H47.2z M91.9,24.9c-0.4-1-1.4-2.7-3.5-2.7
		s-4,1.7-4,4.3c0,2.4,1.8,4.3,4.1,4.3c1.9,0,3.1-1.2,3.4-1.9l-1.4-1c-0.5,0.7-1.1,1.2-2.1,1.2s-1.6-0.4-2.1-1.3l5.6-2.4L91.9,24.9z
		 M86.2,26.2c0-1.6,1.3-2.5,2.2-2.5c0.7,0,1.4,0.4,1.6,0.9L86.2,26.2z M81.6,30.3h1.9V18h-1.9V30.3z M78.6,23.1L78.6,23.1
		c-0.5-0.5-1.3-1-2.2-1c-2.1,0-4,1.9-4,4.3s1.9,4.1,4,4.1c1,0,1.8-0.5,2.2-1h0.1v0.6c0,1.6-0.9,2.5-2.2,2.5c-1.1,0-1.9-0.8-2.1-1.5
		l-1.6,0.7c0.5,1.1,1.7,2.5,3.7,2.5c2.2,0,4-1.3,4-4.3v-7.6h-1.8L78.6,23.1L78.6,23.1z M76.4,28.9c-1.3,0-2.4-1.1-2.4-2.5
		s1.1-2.5,2.4-2.5s2.2,1.1,2.2,2.5S77.7,28.9,76.4,28.9z M100.5,18h-4.4v12.3H98v-4.6h2.5c2.1,0,4-1.5,4-3.8S102.6,18,100.5,18z
		 M100.6,23.9h-2.7v-4.3h2.7c1.4,0,2.2,1.2,2.2,2.1C102.6,22.8,101.9,23.9,100.6,23.9z M111.9,22.1c-1.4,0-2.8,0.6-3.3,1.9l1.7,0.7
		c0.4-0.7,1-0.9,1.7-0.9c1,0,1.9,0.6,2,1.6v0.1c-0.3-0.2-1.1-0.5-1.9-0.5c-1.8,0-3.5,1-3.5,2.8c0,1.7,1.5,2.8,3.1,2.8
		c1.3,0,1.9-0.6,2.4-1.2h0.1v1h1.8v-4.7C115.6,23.4,114,22.1,111.9,22.1z M111.7,28.9c-0.6,0-1.5-0.3-1.5-1.1c0-1,1.1-1.3,2-1.3
		c0.8,0,1.2,0.2,1.7,0.4C113.7,28.1,112.7,28.9,111.7,28.9z M122.1,22.4l-2.1,5.3h-0.1l-2.2-5.3h-2l3.3,7.5l-1.9,4.1h1.9l5-11.6
		H122.1z M105.5,30.3h1.9V18h-1.9V30.3z"/>
	<g>
		
			<linearGradient id="SVGID_1_" gradientUnits="userSpaceOnUse" x1="-268.3249" y1="550.0691" x2="-278.2444" y2="559.9886" gradientTransform="matrix(1.6667 0 0 1.6667 468.8722 -907.4997)">
			<stop  offset="0" style="stop-color:#00A0FF"/>
			<stop  offset="6.599999e-03" style="stop-color:#00A1FF"/>
			<stop  offset="0.2601" style="stop-color:#00BEFF"/>
			<stop  offset="0.5122" style="stop-color:#00D2FF"/>
			<stop  offset="0.7604" style="stop-color:#00DFFF"/>
			<stop  offset="1" style="stop-color:#00E3FF"/>
		</linearGradient>
		<path class="st4" d="M10.4,8.1C10.1,8.4,10,8.9,10,9.5v21.8c0,0.6,0.2,1.1,0.5,1.4l0.1,0.1l12.2-12.2v-0.1v-0.1L10.4,8.1L10.4,8.1
			z"/>
		
			<linearGradient id="SVGID_2_" gradientUnits="userSpaceOnUse" x1="-261.198" y1="556.7902" x2="-275.5007" y2="556.7902" gradientTransform="matrix(1.6667 0 0 1.6667 468.8722 -907.4997)">
			<stop  offset="0" style="stop-color:#FFE000"/>
			<stop  offset="0.4087" style="stop-color:#FFBD00"/>
			<stop  offset="0.7754" style="stop-color:#FFA500"/>
			<stop  offset="1" style="stop-color:#FF9C00"/>
		</linearGradient>
		<path class="st5" d="M26.8,24.7l-4-4v-0.2v-0.1l4-4l0.1,0.1l4.8,2.8c1.4,0.8,1.4,2.1,0,2.8L26.8,24.7L26.8,24.7z"/>
		
			<linearGradient id="SVGID_3_" gradientUnits="userSpaceOnUse" x1="-266.5342" y1="558.1018" x2="-279.986" y2="571.5535" gradientTransform="matrix(1.6667 0 0 1.6667 468.8722 -907.4997)">
			<stop  offset="0" style="stop-color:#FF3A44"/>
			<stop  offset="1" style="stop-color:#C31162"/>
		</linearGradient>
		<path class="st6" d="M26.9,24.6l-4.1-4.1L10.4,32.7c0.5,0.5,1.2,0.5,2.1,0.1L26.9,24.6"/>
		
			<linearGradient id="SVGID_4_" gradientUnits="userSpaceOnUse" x1="-276.9106" y1="545.0667" x2="-270.9039" y2="551.0734" gradientTransform="matrix(1.6667 0 0 1.6667 468.8722 -907.4997)">
			<stop  offset="0" style="stop-color:#32A071"/>
			<stop  offset="6.850000e-02" style="stop-color:#2DA771"/>
			<stop  offset="0.4762" style="stop-color:#15CF74"/>
			<stop  offset="0.8009" style="stop-color:#06E775"/>
			<stop  offset="1" style="stop-color:#00F076"/>
		</linearGradient>
		<path class="st7" d="M26.9,16.3L12.5,8.1c-0.9-0.5-1.6-0.4-2.1,0.1l12.4,12.2L26.9,16.3z"/>
		<g>
			<path class="st8" d="M26.8,24.5l-14.3,8.1c-0.8,0.5-1.5,0.4-2,0l0,0l-0.1,0.1l0,0l0.1,0.1l0,0c0.5,0.4,1.2,0.5,2,0L26.8,24.5
				L26.8,24.5z"/>
			<path class="st9" d="M10.4,32.6c-0.3-0.3-0.4-0.8-0.4-1.4v0.1c0,0.6,0.2,1.1,0.5,1.4L10.4,32.6L10.4,32.6z"/>
		</g>
		<path class="st9" d="M31.7,21.7l-4.9,2.7l0.1,0.1L31.7,21.7c0.8-0.4,1.1-0.8,1.1-1.3l0,0C32.7,20.9,32.3,21.3,31.7,21.7z"/>
		<path class="st10" d="M12.5,8.2l19.2,10.9c0.6,0.4,1,0.8,1,1.3l0,0c0-0.5-0.3-1-1-1.4L12.5,8.2C11.1,7.4,10,8,10,9.5v0.1
			C10.1,8.1,11.1,7.4,12.5,8.2z"/>
	</g>
</g>
</svg>
